<svg width="512" height="512" viewBox="0 0 512 512" fill="none" xmlns="http://www.w3.org/2000/svg">
<g clip-path="url(#clip0_1453_280)">
<path fill-rule="evenodd" clip-rule="evenodd" d="M311.033 333.001C311.033 312.51 313.974 306.439 343.564 267.628C398.551 197.14 346.351 90.1099 256.031 91.0019C165.719 90.1239 113.504 197.133 168.503 267.629C198.092 306.439 201.032 312.51 201.032 333.001H311.033Z" fill="#FFF69B"/>
<path d="M311.033 323H201.033C195.51 323 191.033 327.477 191.033 333V399C191.033 416.645 205.388 431 223.033 431H246.033V502C246.033 507.523 250.51 512 256.033 512C261.556 512 266.033 507.523 266.033 502V431H289.033C306.678 431 321.033 416.645 321.033 399V333C321.033 327.477 316.556 323 311.033 323ZM301.033 343V367H211.033V343H301.033ZM289.033 411H223.033C216.416 411 211.033 405.617 211.033 399V387H301.033V399C301.033 405.617 295.649 411 289.033 411Z" fill="#020288"/>
<path d="M256.033 151.001C231.993 151.001 209.392 160.363 192.393 177.362C188.488 181.267 188.488 187.599 192.393 191.504C196.298 195.409 202.63 195.409 206.535 191.504C232.59 164.348 279.475 164.349 305.529 191.505C307.482 193.457 310.041 194.433 312.6 194.433C321.28 194.587 326.009 183.513 319.671 177.362C302.674 160.363 280.073 151.001 256.033 151.001Z" fill="#020288"/>
<path d="M284.317 222.716C293.009 222.868 297.719 211.794 291.388 205.645C272.777 186.25 239.288 186.249 220.677 205.646C211.646 215.325 225.129 228.826 234.82 219.788C240.486 214.122 248.019 211.001 256.033 211.001C264.047 211.001 271.58 214.122 277.246 219.788C279.198 221.74 281.758 222.716 284.317 222.716Z" fill="#020288"/>
<path d="M246.029 241C246.029 246.526 250.511 251.005 256.037 251C269.287 250.509 269.276 231.486 256.029 231C250.506 231 246.029 235.477 246.029 241Z" fill="#020288"/>
<path d="M256.033 56C261.556 56 266.033 51.523 266.033 46V10C266.033 4.477 261.556 0 256.033 0C250.51 0 246.033 4.477 246.033 10V46C246.033 51.523 250.51 56 256.033 56Z" fill="#020288"/>
<path d="M356.533 26.9289C351.752 24.1669 345.635 25.8059 342.873 30.5889L324.873 61.7669C322.111 66.5499 323.75 72.6659 328.533 75.4269C333.231 78.1639 339.416 76.5929 342.193 71.7669L360.193 40.5889C362.955 35.8059 361.316 29.6899 356.533 26.9289Z" fill="#020288"/>
<path d="M390.275 133.502C391.971 133.502 393.691 133.069 395.266 132.16L426.443 114.16C437.672 107.157 428.141 90.6118 416.443 96.8398L385.266 114.84C376.422 120.012 380.18 133.497 390.275 133.502Z" fill="#020288"/>
<path d="M447.033 191.001H411.033C397.792 191.487 397.777 210.51 411.033 211.001H447.033C460.273 210.515 460.288 191.492 447.033 191.001Z" fill="#020288"/>
<path d="M426.443 287.84L395.266 269.84C390.483 267.077 384.368 268.717 381.606 273.5C378.844 278.283 380.483 284.399 385.266 287.16L416.443 305.16C418.018 306.07 419.737 306.502 421.434 306.502C431.52 306.496 435.295 293.019 426.443 287.84Z" fill="#020288"/>
<path d="M169.192 30.5889C162.188 19.3599 145.646 28.8899 151.872 40.5889L169.872 71.7669C176.919 83.0219 193.412 73.4219 187.192 61.7669C187.193 61.7669 169.192 30.5889 169.192 30.5889Z" fill="#020288"/>
<path d="M126.798 114.84L95.6211 96.84C90.8401 94.08 84.7231 95.717 81.9611 100.5C79.1991 105.283 80.8381 111.399 85.6211 114.16L116.798 132.16C118.373 133.07 120.092 133.502 121.789 133.502C131.875 133.496 135.651 120.02 126.798 114.84Z" fill="#020288"/>
<path d="M111.032 201.001C111.032 195.478 106.555 191.001 101.032 191.001H65.032C59.509 191.001 55.032 195.478 55.032 201.001C55.032 206.524 59.509 211.001 65.032 211.001H101.032C106.555 211.001 111.032 206.524 111.032 201.001Z" fill="#020288"/>
<path d="M116.798 269.84L85.6208 287.84C74.3638 294.883 83.9748 311.385 95.6208 305.16L126.798 287.16C138.027 280.157 128.497 263.613 116.798 269.84Z" fill="#020288"/>
</g>
<defs>
<clipPath id="clip0_1453_280">
<rect width="512" height="512" fill="white"/>
</clipPath>
</defs>
</svg>
