<svg width="512" height="512" viewBox="0 0 512 512" fill="none" xmlns="http://www.w3.org/2000/svg">
<g clip-path="url(#clip0_1453_331)">
<path fill-rule="evenodd" clip-rule="evenodd" d="M311.032 333.001C311.032 312.51 313.973 306.439 343.563 267.628C398.55 197.14 346.35 90.1099 256.03 91.0019C165.718 90.1239 113.503 197.133 168.502 267.629C198.091 306.439 201.031 312.51 201.031 333.001H311.032Z" fill="#FFF69B"/>
<path d="M311.032 323H201.032C195.509 323 191.032 327.477 191.032 333V399C191.032 416.645 205.387 431 223.032 431H246.032V502C246.032 507.523 250.509 512 256.032 512C261.555 512 266.032 507.523 266.032 502V431H289.032C306.677 431 321.032 416.645 321.032 399V333C321.032 327.477 316.555 323 311.032 323ZM301.032 343V367H211.032V343H301.032ZM289.032 411H223.032C216.415 411 211.032 405.617 211.032 399V387H301.032V399C301.032 405.617 295.648 411 289.032 411Z" fill="#020288"/>
<path d="M256.033 151.001C231.993 151.001 209.392 160.363 192.393 177.362C188.488 181.267 188.488 187.599 192.393 191.504C196.298 195.409 202.63 195.409 206.535 191.504C232.59 164.348 279.475 164.349 305.529 191.505C307.482 193.457 310.041 194.433 312.6 194.433C321.28 194.587 326.009 183.513 319.671 177.362C302.674 160.363 280.073 151.001 256.033 151.001Z" fill="#020288"/>
<path d="M284.316 222.716C293.008 222.868 297.718 211.794 291.387 205.645C272.776 186.25 239.287 186.249 220.676 205.646C211.645 215.325 225.128 228.826 234.819 219.788C240.485 214.122 248.018 211.001 256.032 211.001C264.046 211.001 271.579 214.122 277.245 219.788C279.197 221.74 281.757 222.716 284.316 222.716Z" fill="#020288"/>
<path d="M246.028 241C246.028 246.526 250.51 251.005 256.036 251C269.286 250.509 269.275 231.486 256.028 231C250.505 231 246.028 235.477 246.028 241Z" fill="#020288"/>
<path d="M256.032 56C261.555 56 266.032 51.523 266.032 46V10C266.032 4.477 261.555 0 256.032 0C250.509 0 246.032 4.477 246.032 10V46C246.032 51.523 250.509 56 256.032 56Z" fill="#020288"/>
<path d="M356.532 26.9289C351.751 24.1669 345.634 25.8059 342.872 30.5889L324.872 61.7669C322.11 66.5499 323.749 72.6659 328.532 75.4269C333.23 78.1639 339.415 76.5929 342.192 71.7669L360.192 40.5889C362.954 35.8059 361.315 29.6899 356.532 26.9289Z" fill="#020288"/>
<path d="M390.275 133.502C391.971 133.502 393.691 133.069 395.266 132.16L426.443 114.16C437.672 107.157 428.141 90.6118 416.443 96.8398L385.266 114.84C376.422 120.012 380.18 133.497 390.275 133.502Z" fill="#020288"/>
<path d="M447.033 191.001H411.033C397.792 191.487 397.777 210.51 411.033 211.001H447.033C460.273 210.515 460.288 191.492 447.033 191.001Z" fill="#020288"/>
<path d="M426.443 287.84L395.266 269.84C390.483 267.077 384.368 268.717 381.606 273.5C378.844 278.283 380.483 284.399 385.266 287.16L416.443 305.16C418.018 306.07 419.737 306.502 421.434 306.502C431.52 306.496 435.295 293.019 426.443 287.84Z" fill="#020288"/>
<path d="M169.192 30.5889C162.188 19.3599 145.646 28.8899 151.872 40.5889L169.872 71.7669C176.919 83.0219 193.412 73.4219 187.192 61.7669C187.193 61.7669 169.192 30.5889 169.192 30.5889Z" fill="#020288"/>
<path d="M126.798 114.84L95.6209 96.84C90.8399 94.08 84.7229 95.717 81.9609 100.5C79.1989 105.283 80.8379 111.399 85.6209 114.16L116.798 132.16C118.373 133.07 120.092 133.502 121.789 133.502C131.875 133.496 135.651 120.02 126.798 114.84Z" fill="#020288"/>
<path d="M111.032 201.001C111.032 195.478 106.555 191.001 101.032 191.001H65.0317C59.5087 191.001 55.0317 195.478 55.0317 201.001C55.0317 206.524 59.5087 211.001 65.0317 211.001H101.032C106.555 211.001 111.032 206.524 111.032 201.001Z" fill="#020288"/>
<path d="M116.798 269.84L85.6206 287.84C74.3636 294.883 83.9746 311.385 95.6206 305.16L126.798 287.16C138.027 280.157 128.497 263.613 116.798 269.84Z" fill="#020288"/>
</g>
<defs>
<clipPath id="clip0_1453_331">
<rect width="512" height="512" fill="white"/>
</clipPath>
</defs>
</svg>
