<svg width="512" height="512" viewBox="0 0 512 512" fill="none" xmlns="http://www.w3.org/2000/svg">
<path d="M259.24 10V139.488C259.24 159.714 275.747 176.111 296.109 176.111C316.471 176.111 332.978 159.714 332.978 139.488V114.223C332.978 134.449 349.485 150.846 369.847 150.846C390.209 150.846 406.716 134.449 406.716 114.223V10H259.24Z" fill="#A4FCC4"/>
<path d="M406.715 0H105.285C99.7632 0 95.2852 4.478 95.2852 10V275.095C95.2852 305.656 120.324 330.519 151.101 330.519H216.758V349.666C216.758 372.31 211.633 405.201 201.838 424.253C196.952 433.756 194.7 444.463 195.325 455.217C197.103 485.831 222.687 510.753 253.569 511.952C254.394 511.984 255.215 512 256.036 512C271.911 512 286.834 506.016 298.285 495C310.21 483.53 316.776 468.138 316.776 451.656C316.776 442.51 314.765 433.721 310.798 425.532C300.693 404.669 295.239 370.871 295.239 349.662V330.518H360.896C391.673 330.518 416.712 305.655 416.712 275.094V10C416.715 4.478 412.237 0 406.715 0ZM115.285 20H146.693V58.517C146.693 64.039 151.171 68.517 156.693 68.517C162.215 68.517 166.693 64.039 166.693 58.517V20H188.555V121.109C188.555 126.631 193.033 131.109 198.555 131.109C204.077 131.109 208.555 126.631 208.555 121.109V20H396.714V242.786H115.284V20H115.285ZM396.715 275.095C396.715 294.628 380.648 310.519 360.899 310.519H285.242C279.72 310.519 275.242 314.997 275.242 320.519V349.663C275.242 373.684 281.273 410.453 292.801 434.252C295.441 439.7 296.779 445.557 296.779 451.657C296.779 462.648 292.391 472.923 284.424 480.587C276.336 488.367 265.633 492.395 254.35 491.969C233.638 491.164 216.483 474.512 215.295 454.058C214.877 446.87 216.375 439.726 219.628 433.399C231.399 410.503 236.761 373.945 236.761 349.668V320.521C236.761 314.999 232.283 310.521 226.761 310.521H151.104C131.355 310.521 115.288 294.63 115.288 275.097V262.788H396.718V275.095H396.715Z" fill="white"/>
</svg>
