<svg width="520" height="520" viewBox="0 0 520 520" fill="none" xmlns="http://www.w3.org/2000/svg">
<g clip-path="url(#clip0_1453_261)" filter="url(#filter0_d_1453_261)">
<path d="M359.718 184.856C375.718 206.687 385.174 233.59 385.174 262.657C385.174 335.438 325.894 394.65 253.028 394.65C180.162 394.65 120.882 335.438 120.882 262.657C120.882 189.876 180.162 130.664 253.028 130.664C282.444 130.664 309.645 140.314 331.626 156.611L369.691 118.59C337.794 92.7699 297.188 77.2839 253.028 77.2839C150.695 77.2839 67.4409 160.442 67.4409 262.657C67.4409 364.872 150.695 448.03 253.028 448.03C355.361 448.03 438.615 364.872 438.615 262.657C438.615 218.861 423.33 178.564 397.81 146.808L359.718 184.856Z" fill="#FFBDBC"/>
<path d="M257.34 258.964C264.867 235.421 277.183 213.732 293.472 195.238C281.645 188.133 267.806 184.044 253.028 184.044C209.63 184.044 174.324 219.31 174.324 262.658C174.324 306.005 209.631 341.272 253.028 341.272C296.425 341.272 331.732 306.006 331.732 262.658C331.732 248.212 327.81 234.663 320.975 223.018C302.496 239.216 280.841 251.468 257.34 258.964Z" fill="#FFBDBC"/>
<path d="M513.067 97.566C515.784 94.852 516.707 90.821 515.441 87.195C514.175 83.569 510.945 80.989 507.129 80.554L466.693 75.959L440.543 49.839L435.943 9.46C435.508 5.647 432.93 2.418 429.307 1.152C425.682 -0.117998 421.656 0.806002 418.94 3.516L379.377 43.034C378.279 44.131 377.247 45.276 376.283 46.465C338.855 25.139 296.425 13.905 253.028 13.905C186.512 13.905 123.977 39.778 76.942 86.759C29.905 133.743 4 196.212 4 262.658C4 329.104 29.905 391.573 76.942 438.556C123.977 485.536 186.512 511.41 253.028 511.41C319.544 511.41 382.079 485.537 429.114 438.556C476.151 391.573 502.056 329.104 502.056 262.658C502.056 219.615 490.963 177.509 469.899 140.31C471.149 139.308 472.353 138.232 473.503 137.083L513.067 97.566ZM459.369 122.933C454.257 128.04 447.207 130.51 440.015 129.685L430.218 128.572L463.143 95.685L484.248 98.083L459.369 122.933ZM322.415 207.981C308.697 221.683 292.593 232.969 275.064 241.254C283.357 223.755 294.653 207.676 308.366 193.98L432.458 70.031L446.492 84.048L322.415 207.981ZM248.579 253.583C248.559 253.603 248.539 253.622 248.519 253.642L237.848 264.3C233.941 268.203 233.937 274.535 237.84 278.443C239.793 280.398 242.354 281.376 244.915 281.376C247.473 281.376 250.03 280.401 251.982 278.451L262.653 267.792C262.674 267.771 262.694 267.75 262.715 267.729C290.413 258.49 315.898 242.759 336.55 222.132L358.139 200.568C369.311 219.334 375.174 240.613 375.174 262.659C375.174 329.927 320.38 384.652 253.028 384.652C185.676 384.652 130.882 329.926 130.882 262.659C130.882 195.392 185.676 140.666 253.028 140.666C275.434 140.666 296.989 146.676 315.956 158.131L294.231 179.831C273.58 200.457 257.83 225.914 248.579 253.583ZM418.417 32.308L420.817 53.389L387.872 86.296L386.756 76.495C385.941 69.326 388.402 62.287 393.512 57.183L418.417 32.308ZM482.057 262.658C482.057 388.792 379.316 491.41 253.029 491.41C126.742 491.41 24 388.792 24 262.658C24 136.523 126.741 33.905 253.028 33.905C293.414 33.905 332.882 44.476 367.589 64.535C366.589 69.137 366.335 73.932 366.884 78.759L369.799 104.349L330.472 143.631C307.399 128.583 280.774 120.666 253.028 120.666C174.649 120.666 110.882 184.364 110.882 262.659C110.882 340.954 174.649 404.652 253.028 404.652C331.407 404.652 395.174 340.954 395.174 262.659C395.174 235.288 387.412 208.931 372.671 186.053L412.124 146.646L437.757 149.558V149.559C439.431 149.748 441.098 149.842 442.757 149.842C445.812 149.842 448.832 149.523 451.774 148.901C471.606 183.404 482.057 222.585 482.057 262.658Z" fill="white"/>
</g>
<defs>
<filter id="filter0_d_1453_261" x="0" y="0" width="520" height="520" filterUnits="userSpaceOnUse" color-interpolation-filters="sRGB">
<feFlood flood-opacity="0" result="BackgroundImageFix"/>
<feColorMatrix in="SourceAlpha" type="matrix" values="0 0 0 0 0 0 0 0 0 0 0 0 0 0 0 0 0 0 127 0" result="hardAlpha"/>
<feOffset dy="4"/>
<feGaussianBlur stdDeviation="2"/>
<feComposite in2="hardAlpha" operator="out"/>
<feColorMatrix type="matrix" values="0 0 0 0 0 0 0 0 0 0 0 0 0 0 0 0 0 0 0.25 0"/>
<feBlend mode="normal" in2="BackgroundImageFix" result="effect1_dropShadow_1453_261"/>
<feBlend mode="normal" in="SourceGraphic" in2="effect1_dropShadow_1453_261" result="shape"/>
</filter>
<clipPath id="clip0_1453_261">
<rect width="512" height="512" fill="white" transform="translate(4)"/>
</clipPath>
</defs>
</svg>
