<svg width="512" height="512" viewBox="0 0 512 512" fill="none" xmlns="http://www.w3.org/2000/svg">
<g clip-path="url(#clip0_1453_254)">
<path d="M355.718 184.856C371.718 206.687 381.174 233.59 381.174 262.657C381.174 335.438 321.894 394.65 249.028 394.65C176.162 394.65 116.882 335.438 116.882 262.657C116.882 189.876 176.162 130.664 249.028 130.664C278.444 130.664 305.645 140.314 327.626 156.611L365.691 118.59C333.794 92.7699 293.188 77.2839 249.028 77.2839C146.695 77.2839 63.4409 160.442 63.4409 262.657C63.4409 364.872 146.695 448.03 249.028 448.03C351.361 448.03 434.615 364.872 434.615 262.657C434.615 218.861 419.33 178.564 393.81 146.808L355.718 184.856Z" fill="#FFBDBC"/>
<path d="M253.34 258.964C260.867 235.421 273.183 213.732 289.472 195.238C277.645 188.133 263.806 184.044 249.028 184.044C205.63 184.044 170.324 219.31 170.324 262.658C170.324 306.005 205.631 341.272 249.028 341.272C292.425 341.272 327.732 306.006 327.732 262.658C327.732 248.212 323.81 234.663 316.975 223.018C298.496 239.216 276.841 251.468 253.34 258.964Z" fill="#FFBDBC"/>
<path d="M509.067 97.566C511.784 94.852 512.707 90.821 511.441 87.195C510.175 83.569 506.945 80.989 503.129 80.554L462.693 75.959L436.543 49.839L431.943 9.46C431.508 5.647 428.93 2.418 425.307 1.152C421.682 -0.117998 417.656 0.806002 414.94 3.516L375.377 43.034C374.279 44.131 373.247 45.276 372.283 46.465C334.855 25.139 292.425 13.905 249.028 13.905C182.512 13.905 119.977 39.778 72.942 86.759C25.905 133.743 0 196.212 0 262.658C0 329.104 25.905 391.573 72.942 438.556C119.977 485.536 182.512 511.41 249.028 511.41C315.544 511.41 378.079 485.537 425.114 438.556C472.151 391.573 498.056 329.104 498.056 262.658C498.056 219.615 486.963 177.509 465.899 140.31C467.149 139.308 468.353 138.232 469.503 137.083L509.067 97.566ZM455.369 122.933C450.257 128.04 443.207 130.51 436.015 129.685L426.218 128.572L459.143 95.685L480.248 98.083L455.369 122.933ZM318.415 207.981C304.697 221.683 288.593 232.969 271.064 241.254C279.357 223.755 290.653 207.676 304.366 193.98L428.458 70.031L442.492 84.048L318.415 207.981ZM244.579 253.583C244.559 253.603 244.539 253.622 244.519 253.642L233.848 264.3C229.941 268.203 229.937 274.535 233.84 278.443C235.793 280.398 238.354 281.376 240.915 281.376C243.473 281.376 246.03 280.401 247.982 278.451L258.653 267.792C258.674 267.771 258.694 267.75 258.715 267.729C286.413 258.49 311.898 242.759 332.55 222.132L354.139 200.568C365.311 219.334 371.174 240.613 371.174 262.659C371.174 329.927 316.38 384.652 249.028 384.652C181.676 384.652 126.882 329.926 126.882 262.659C126.882 195.392 181.676 140.666 249.028 140.666C271.434 140.666 292.989 146.676 311.956 158.131L290.231 179.831C269.58 200.457 253.83 225.914 244.579 253.583ZM414.417 32.308L416.817 53.389L383.872 86.296L382.756 76.495C381.941 69.326 384.402 62.287 389.512 57.183L414.417 32.308ZM478.057 262.658C478.057 388.792 375.316 491.41 249.029 491.41C122.742 491.41 20 388.792 20 262.658C20 136.523 122.741 33.905 249.028 33.905C289.414 33.905 328.882 44.476 363.589 64.535C362.589 69.137 362.335 73.932 362.884 78.759L365.799 104.349L326.472 143.631C303.399 128.583 276.774 120.666 249.028 120.666C170.649 120.666 106.882 184.364 106.882 262.659C106.882 340.954 170.649 404.652 249.028 404.652C327.407 404.652 391.174 340.954 391.174 262.659C391.174 235.288 383.412 208.931 368.671 186.053L408.124 146.646L433.757 149.558V149.559C435.431 149.748 437.098 149.842 438.757 149.842C441.812 149.842 444.832 149.523 447.774 148.901C467.606 183.404 478.057 222.585 478.057 262.658Z" fill="#020288"/>
</g>
<defs>
<clipPath id="clip0_1453_254">
<rect width="512" height="512" fill="white"/>
</clipPath>
</defs>
</svg>
